<svg display="none"   fill="none" xmlns="http://www.w3.org/2000/svg">
    <symbol id="svg_logo" viewBox="0 0 48 37" >
        <g >
           <circle cx="32" cy="16.2941" r="16" transform="rotate(-180 32 16.2941)" fill="#FEEF6D"/>
            <circle cx="16" cy="21" r="16" transform="rotate(-180 16 21)" fill="#6DC1FE"/>
        </g>
    </symbol>
    <symbol id="svg_back_icon" viewBox="0 0 102 24">
        <path d="M0.93934 13.0607C0.353553 12.4749 0.353553 11.5251 0.93934 10.9393L10.4853 1.3934C11.0711 0.807612 12.0208 0.807612 12.6066 1.3934C13.1924 1.97918 13.1924 2.92893 12.6066 3.51472L4.12132 12L12.6066 20.4853C13.1924 21.0711 13.1924 22.0208 12.6066 22.6066C12.0208 23.1924 11.0711 23.1924 10.4853 22.6066L0.93934 13.0607ZM102 13.5H2V10.5H102V13.5Z"/>
    </symbol>
    <symbol id="svg_instagram_icon" viewBox="0 0 38 38" >
        <path d="M12.6667 4.75C8.29508 4.75 4.75 8.29508 4.75 12.6667V25.3333C4.75 29.7049 8.29508 33.25 12.6667 33.25H25.3333C29.7049 33.25 33.25 29.7049 33.25 25.3333V12.6667C33.25 8.29508 29.7049 4.75 25.3333 4.75H12.6667ZM28.5 7.91667C29.374 7.91667 30.0833 8.626 30.0833 9.5C30.0833 10.374 29.374 11.0833 28.5 11.0833C27.626 11.0833 26.9167 10.374 26.9167 9.5C26.9167 8.626 27.626 7.91667 28.5 7.91667ZM19 11.0833C23.3716 11.0833 26.9167 14.6284 26.9167 19C26.9167 23.3716 23.3716 26.9167 19 26.9167C14.6284 26.9167 11.0833 23.3716 11.0833 19C11.0833 14.6284 14.6284 11.0833 19 11.0833ZM19 14.25C17.7402 14.25 16.532 14.7504 15.6412 15.6412C14.7504 16.532 14.25 17.7402 14.25 19C14.25 20.2598 14.7504 21.468 15.6412 22.3588C16.532 23.2496 17.7402 23.75 19 23.75C20.2598 23.75 21.468 23.2496 22.3588 22.3588C23.2496 21.468 23.75 20.2598 23.75 19C23.75 17.7402 23.2496 16.532 22.3588 15.6412C21.468 14.7504 20.2598 14.25 19 14.25Z"/>
    </symbol>
    <symbol id="svg_facebook_icon" viewBox="0 0 38 38">
        <path d="M19 3.1665C10.2552 3.1665 3.16663 10.2551 3.16663 18.9998C3.16663 26.9371 9.01388 33.4921 16.6329 34.6368V23.1957H12.7157V19.0331H16.6329V16.2638C16.6329 11.6785 18.867 9.66609 22.678 9.66609C24.5036 9.66609 25.4679 9.80067 25.9255 9.86242V13.4946H23.3256C21.7075 13.4946 21.1422 15.0288 21.1422 16.7578V19.0331H25.8843L25.2415 23.1957H21.1438V34.6701C28.872 33.6235 34.8333 27.0147 34.8333 18.9998C34.8333 10.2551 27.7447 3.1665 19 3.1665Z"/>
    </symbol>
    <symbol id="svg_youtube_icon" viewBox="0 0 38 38">
        <path d="M34.1715 9.79466C33.8073 8.433 32.7338 7.3595 31.3721 6.99533C28.9021 6.3335 19 6.3335 19 6.3335C19 6.3335 9.09779 6.3335 6.62779 6.99533C5.26613 7.3595 4.19263 8.433 3.82846 9.79466C3.16663 12.2647 3.16663 19.0002 3.16663 19.0002C3.16663 19.0002 3.16663 25.7357 3.82846 28.2057C4.19263 29.5673 5.26613 30.6408 6.62779 31.005C9.09779 31.6668 19 31.6668 19 31.6668C19 31.6668 28.9021 31.6668 31.3721 31.005C32.7354 30.6408 33.8073 29.5673 34.1715 28.2057C34.8333 25.7357 34.8333 19.0002 34.8333 19.0002C34.8333 19.0002 34.8333 12.2647 34.1715 9.79466ZM15.8333 24.4848V13.5155L25.3333 19.0002L15.8333 24.4848Z"/>
     </symbol>
</svg>
