<svg width="38" height="38" viewBox="0 0 38 38" fill="red" xmlns="http://www.w3.org/2000/svg">
<path d="M34.1715 9.79466C33.8073 8.433 32.7338 7.3595 31.3721 6.99533C28.9021 6.3335 19 6.3335 19 6.3335C19 6.3335 9.09779 6.3335 6.62779 6.99533C5.26613 7.3595 4.19263 8.433 3.82846 9.79466C3.16663 12.2647 3.16663 19.0002 3.16663 19.0002C3.16663 19.0002 3.16663 25.7357 3.82846 28.2057C4.19263 29.5673 5.26613 30.6408 6.62779 31.005C9.09779 31.6668 19 31.6668 19 31.6668C19 31.6668 28.9021 31.6668 31.3721 31.005C32.7354 30.6408 33.8073 29.5673 34.1715 28.2057C34.8333 25.7357 34.8333 19.0002 34.8333 19.0002C34.8333 19.0002 34.8333 12.2647 34.1715 9.79466ZM15.8333 24.4848V13.5155L25.3333 19.0002L15.8333 24.4848Z" fill="white"/>
</svg>
